<svg xmlns="http://www.w3.org/2000/svg" viewBox="0 0 435.59 55.05"><defs><style>.cls-1{fill:#faea09;}</style></defs><g id="Layer_2" data-name="Layer 2"><g id="Layer_5" data-name="Layer 5"><polygon class="cls-1" points="54.15 21.54 54.15 20.64 34.4 20.64 34.4 0 20.64 0 20.64 20.64 0 20.64 0 34.41 20.64 34.41 20.64 55.05 34.4 55.05 34.4 34.4 55.05 34.41 55.05 20.64 54.15 20.64 54.15 21.54 53.25 21.54 53.25 32.61 32.61 32.61 32.61 53.25 22.44 53.25 22.44 32.61 1.79 32.61 1.79 22.44 22.44 22.44 22.44 1.79 32.61 1.79 32.61 22.44 54.15 22.44 54.15 21.54 53.25 21.54 54.15 21.54"/><polygon class="cls-1" points="149.28 21.54 149.28 20.64 129.54 20.64 129.54 0 115.78 0 115.78 20.64 95.14 20.64 95.14 34.41 115.78 34.41 115.78 55.05 129.54 55.05 129.54 34.4 150.18 34.41 150.18 20.64 149.28 20.64 149.28 21.54 148.38 21.54 148.38 32.61 127.74 32.61 127.74 53.25 117.57 53.25 117.57 32.61 96.93 32.61 96.93 22.44 117.57 22.44 117.57 1.79 127.74 1.79 127.74 22.44 149.28 22.44 149.28 21.54 148.38 21.54 149.28 21.54"/><polygon class="cls-1" points="244.42 21.54 244.42 20.64 224.67 20.64 224.67 0 210.91 0 210.91 20.64 190.27 20.64 190.27 34.41 210.91 34.41 210.91 55.05 224.67 55.05 224.67 34.4 245.31 34.41 245.31 20.64 244.42 20.64 244.42 21.54 243.52 21.54 243.52 32.61 222.88 32.61 222.88 53.25 212.71 53.25 212.71 32.61 192.06 32.61 192.06 22.44 212.71 22.44 212.71 1.79 222.88 1.79 222.88 22.44 244.42 22.44 244.42 21.54 243.52 21.54 244.42 21.54"/><polygon class="cls-1" points="339.55 21.54 339.55 20.64 319.81 20.64 319.81 0 306.05 0 306.05 20.64 285.4 20.64 285.4 34.41 306.05 34.41 306.05 55.05 319.81 55.05 319.81 34.4 340.45 34.41 340.45 20.64 339.55 20.64 339.55 21.54 338.65 21.54 338.65 32.61 318.01 32.61 318.01 53.25 307.84 53.25 307.84 32.61 287.2 32.61 287.2 22.44 307.84 22.44 307.84 1.79 318.01 1.79 318.01 22.44 339.55 22.44 339.55 21.54 338.65 21.54 339.55 21.54"/><polygon class="cls-1" points="434.69 21.54 434.69 20.64 414.94 20.64 414.94 0 401.18 0 401.18 20.64 380.54 20.64 380.54 34.41 401.18 34.41 401.18 55.05 414.94 55.05 414.94 34.4 435.58 34.41 435.58 20.64 434.69 20.64 434.69 21.54 433.79 21.54 433.79 32.61 413.15 32.61 413.15 53.25 402.98 53.25 402.98 32.61 382.33 32.61 382.33 22.44 402.98 22.44 402.98 1.79 413.15 1.79 413.15 22.44 434.69 22.44 434.69 21.54 433.79 21.54 434.69 21.54"/></g></g></svg>