<svg xmlns="http://www.w3.org/2000/svg" viewBox="0 0 378.26 93.32">
    <defs>
        <style>.cls-1,.cls-2{fill:var(--current-page-color);}.cls-2{font-size:60.37px;font-family:Android101, "Android
            101";}</style>
    </defs>
    <g id="Layer_2" data-name="Layer 2">
        <g id="Layer_1-2" data-name="Layer 1">
            <path class="cls-1"
                d="M46.9,87.32v-2.8c-.4,0-.82,0-1.23,0s-.82,0-1.23,0v2.8A44.51,44.51,0,0,1,10.65,70.38,38.92,38.92,0,0,0,25.39,84.59,41.81,41.81,0,0,0,43,89.71l2.65.09,2.66-.09c1.1-.1,2.2-.17,3.29-.34l2-.32a40.13,40.13,0,0,0,27.1-18.67A44.45,44.45,0,0,1,46.9,87.32M44,92.93a1.16,1.16,0,0,1-.72-.54,1.14,1.14,0,0,1,.43-1.58,1.16,1.16,0,0,1,.59-.16,1.2,1.2,0,0,1,1,.58,1.27,1.27,0,0,1,.13.32,1.51,1.51,0,0,0,0,.52v0a1.18,1.18,0,0,1-.55.71,1.23,1.23,0,0,1-.59.15,1.06,1.06,0,0,1-.31,0M46,91.23a1.2,1.2,0,0,1,1-.58,1.16,1.16,0,0,1,.59.16A1.14,1.14,0,0,1,48,92.39a1.16,1.16,0,0,1-.72.54,1.23,1.23,0,0,1-.9-.11,1.18,1.18,0,0,1-.55-.71v0a1.51,1.51,0,0,0,0-.52,1.27,1.27,0,0,1,.13-.32M77.52,67.72l6.06,3.84a45.68,45.68,0,0,1-35.07,20,1.48,1.48,0,0,0-.74-1,1.55,1.55,0,0,0-2.1.55h0a1.55,1.55,0,0,0-2.1-.55,1.48,1.48,0,0,0-.74,1,45.66,45.66,0,0,1-35.06-20l6.05-3.84-.19-.29-6.2,3.94.09.14-.15.1A45.47,45.47,0,0,0,23,86,46.78,46.78,0,0,0,42.8,91.86a1.48,1.48,0,0,0,.2.7,1.57,1.57,0,0,0,.94.71,1.75,1.75,0,0,0,.4,0,1.57,1.57,0,0,0,.76-.2,1.53,1.53,0,0,0,.57-.56,1.53,1.53,0,0,0,.57.56,1.57,1.57,0,0,0,.76.2,1.75,1.75,0,0,0,.4,0,1.57,1.57,0,0,0,.94-.71,1.48,1.48,0,0,0,.2-.69,46.94,46.94,0,0,0,19.82-5.82A45.31,45.31,0,0,0,84,71.61l-.15-.1.09-.14-6.2-3.94Zm-73.39,3a1.14,1.14,0,0,1,.43-1.58A1.16,1.16,0,0,1,5.15,69a1.2,1.2,0,0,1,1,.58,1.13,1.13,0,0,1,.12.88,1.18,1.18,0,0,1-.55.71,1.27,1.27,0,0,1-.6.15,1.17,1.17,0,0,1-1-.58m2.26-1.47a1.56,1.56,0,0,0-2-.41,1.49,1.49,0,0,0-.56,2,1.54,1.54,0,0,0,1.34.76,1.6,1.6,0,0,0,.76-.2,1.54,1.54,0,0,0,.72-.92,1.47,1.47,0,0,0-.08-1l6.21-3.5-.18-.3Zm78.77.31a1.19,1.19,0,0,1,.72-.54,1.1,1.1,0,0,1,.31,0,1.11,1.11,0,0,1,.59.16,1.15,1.15,0,0,1,.44,1.58,1.19,1.19,0,0,1-.72.54,1.22,1.22,0,0,1-.9-.11h0a1.15,1.15,0,0,1-.44-1.59m-6.59-3.52,6.21,3.5a1.5,1.5,0,0,0,.64,1.91,1.61,1.61,0,0,0,.77.2,1.9,1.9,0,0,0,.4,0,1.58,1.58,0,0,0,.93-.71,1.49,1.49,0,0,0-.56-2,1.54,1.54,0,0,0-1.17-.15,1.52,1.52,0,0,0-.84.56l-6.2-3.51ZM66.76,26.64l-.12.66-.55-.54a67.79,67.79,0,0,0-7.72,2l-29,28.37-1.31,1.28-.33.33a5.75,5.75,0,0,1-.74.56,1,1,0,0,0-.29.37c-.44,1.28-.83,2.62-1.2,4-.31,1.16-.59,2.34-.81,3.59l.57.56-.68.11.68-.11c1.28-.21,2.49-.49,3.67-.79,1.39-.36,2.76-.74,4.07-1.18a1.05,1.05,0,0,0,.38-.27,4.54,4.54,0,0,1,.58-.73l1.64-1.61,29-28.37a62.73,62.73,0,0,0,2-7.55l.12-.66h0m-21.09-8a29.51,29.51,0,0,1,20.42,8.13l.67-.12-.12.66a28.18,28.18,0,0,1-.1,40.06L58.15,46.48l-4.46,4.35,2.86,7.09-7.26-2.78-4.44,4.34,21.34,8.21.57.22-.57-.22a29.68,29.68,0,0,1-40.93.11l-.68.11c0-.22.07-.45.11-.67a28.16,28.16,0,0,1,.11-40l-.22-.56.22.56,8.4,20.88,4.43-4.34-2.82-7.08L42,39.43l4.46-4.36L25.15,26.86a29.48,29.48,0,0,1,20.52-8.23M45.49,10c-.55,0-1.09,0-1.64,0l-.35,0A38.28,38.28,0,0,0,13.61,27.16q-.66,1-1.26,2.07a36.54,36.54,0,0,0-.6,35A38.21,38.21,0,0,0,44.44,84.52c.41,0,.82,0,1.23,0s.83,0,1.23,0c20.44-.63,36.86-17.1,36.86-37.24a36.4,36.4,0,0,0-4.77-18q-.6-1.05-1.26-2.07A38.29,38.29,0,0,0,47.84,10.07l-.35,0c-.55,0-1.09,0-1.64,0Zm3.13-3.95A47.33,47.33,0,0,1,65.36,11.7l1.6,1,1.57,1L70,14.79,71.51,16c.88.74,1.94,1.69,2.77,2.48A45.15,45.15,0,0,1,79.1,24c.4.55.79,1.12,1.16,1.69h0l-2.53,1.43q.66,1,1.26,2.07l2.53-1.43h0a41.77,41.77,0,0,1,5.37,17.9,44,44,0,0,1-3.15,19.49,36.78,36.78,0,0,0,3.88-9.39A40.31,40.31,0,0,0,48.8,6.06h-.18m-16.38.77c-.86.22-1.67.58-2.5.88a44.26,44.26,0,0,0-8.22,4.21L19.89,13c-.32.23-1.25,1-1.57,1.19L16.8,15.49l-1.46,1.33c-.31.31-1.09,1.08-1.39,1.39l-1.33,1.45-1.26,1.51-1.19,1.56L9.06,24.35,8,26l-.64,1.14A41.58,41.58,0,0,0,2.24,45.79a42.18,42.18,0,0,0,.9,10.33A34.93,34.93,0,0,0,7.7,65.39a48.44,48.44,0,0,1-2.13-9.77A39.49,39.49,0,0,1,9.82,27.8h0l2.53,1.43q.6-1.07,1.26-2.07l-2.52-1.43h0l.39-.59.7-1c.25-.33.89-1.16,1.12-1.48s.93-1.11,1.19-1.42l.84-.92c.46-.52,1.24-1.26,1.73-1.76l1.38-1.26,1.43-1.19c.56-.41,1.42-1.1,2-1.47l1-.71,1.59-1c1-.6,2.22-1.24,3.3-1.76A44.21,44.21,0,0,1,33,9.12a50.26,50.26,0,0,1,9.72-3.06C41.93,6,41.13,6,40.33,6a39.63,39.63,0,0,0-8.09.85m-27,20.43a1.19,1.19,0,0,1-.72-.54,1.13,1.13,0,0,1-.12-.88A1.18,1.18,0,0,1,5.58,25a1.15,1.15,0,0,1,.31,0h0a1.48,1.48,0,0,0,.46.26,1.44,1.44,0,0,1,.22.27,1.13,1.13,0,0,1,.11.88,1.2,1.2,0,0,1-1.14.86,1.1,1.1,0,0,1-.31,0m.46-3.38A1.19,1.19,0,1,1,6.91,25,1.27,1.27,0,0,1,6.57,25a1.51,1.51,0,0,0-.46-.26,1.14,1.14,0,0,1-.38-.85m17-15.23A45.55,45.55,0,0,0,7.64,22.55a1.64,1.64,0,0,0-.73-.18,1.53,1.53,0,0,0-1.53,1.51,1.39,1.39,0,0,0,.21.75,1.55,1.55,0,0,0-.78.21,1.49,1.49,0,0,0-.72.91,1.47,1.47,0,0,0,.16,1.14,1.44,1.44,0,0,0,.51.53A43.79,43.79,0,0,0,5,67.56l.16-.08.08.15,6.59-3.28L11.65,64,5.22,67.25a43.64,43.64,0,0,1-.14-39.69l.1,0a1.37,1.37,0,0,0,.4.05,1.5,1.5,0,0,0,.77-.2,1.47,1.47,0,0,0,.71-.91,1.43,1.43,0,0,0-.15-1.14h0a1.52,1.52,0,0,0,1.54-1.5,1.48,1.48,0,0,0-.52-1.13A45.69,45.69,0,0,1,43.12,3h0l.38,7.05.35,0-.38-7.22h-.18V2.66a46.53,46.53,0,0,0-20.56,6M85.46,25a1.2,1.2,0,0,1,.89.11,1.15,1.15,0,0,1,.44,1.59,1.21,1.21,0,0,1-1.62.42h0a1.15,1.15,0,0,1-.44-1.58,1.44,1.44,0,0,1,.22-.27,1.48,1.48,0,0,0,.46-.26h0m-2.22-1.14a1.19,1.19,0,1,1,2,.85,1.54,1.54,0,0,0-.47.26,1.27,1.27,0,0,1-.34.05,1.17,1.17,0,0,1-1.19-1.16m-35.19-21h-.17l-.39,7.22.35,0,.38-7h0a45.72,45.72,0,0,1,35.2,19.73,1.45,1.45,0,0,0-.53,1.13,1.52,1.52,0,0,0,1.54,1.5h0A1.49,1.49,0,0,0,85,27.44h0a1.53,1.53,0,0,0,.77.2,1.42,1.42,0,0,0,.5-.08,43.64,43.64,0,0,1-.14,39.69L79.69,64l-.16.31,6.59,3.28.08-.15.16.08a43.79,43.79,0,0,0,.22-40.14,1.62,1.62,0,0,0,.51-.53,1.47,1.47,0,0,0-.56-2.05,1.51,1.51,0,0,0-.77-.21,1.48,1.48,0,0,0,.21-.75,1.53,1.53,0,0,0-1.54-1.51,1.57,1.57,0,0,0-.72.18A45.86,45.86,0,0,0,68.65,8.66a46.53,46.53,0,0,0-20.59-6ZM44.48,1.5a1.19,1.19,0,0,1,2.38,0,1.19,1.19,0,0,1-2.38,0m-.35,0A1.52,1.52,0,0,0,45.49,3v7h.36V3a1.52,1.52,0,0,0,1.36-1.5,1.54,1.54,0,0,0-3.08,0" />
            <text class="cls-2" transform="translate(106.61 62.01)">XPECTO</text>
        </g>
    </g>
</svg>